<svg width="18" height="18" viewBox="0 0 18 18" fill="none" xmlns="http://www.w3.org/2000/svg">
<path d="M9.00033 15.667C12.6837 15.667 15.667 12.6837 15.667 9.00033C15.667 5.31699 12.6837 2.33366 9.00033 2.33366C5.31699 2.33366 2.33366 5.31699 2.33366 9.00033C2.33366 12.6837 5.31699 15.667 9.00033 15.667ZM9.00033 0.666992C13.5837 0.666992 17.3337 4.41699 17.3337 9.00033C17.3337 13.5837 13.5837 17.3337 9.00033 17.3337C4.39199 17.3337 0.666992 13.5837 0.666992 9.00033C0.666992 4.41699 4.41699 0.666992 9.00033 0.666992ZM11.7503 5.50033L9.25033 9.83366H8.16699V4.83366H9.41699V7.04199L10.667 4.87533L11.7503 5.50033Z" fill="black"/>
</svg>
