<svg width="18" height="14" viewBox="0 0 18 14" fill="none" xmlns="http://www.w3.org/2000/svg">
<path d="M16.5 0.90625H1.5C1.20992 0.90625 0.93172 1.02148 0.726602 1.2266C0.521484 1.43172 0.40625 1.70992 0.40625 2V12C0.40625 12.2901 0.521484 12.5683 0.726602 12.7734C0.93172 12.9785 1.20992 13.0938 1.5 13.0938H16.5C16.7901 13.0938 17.0683 12.9785 17.2734 12.7734C17.4785 12.5683 17.5938 12.2901 17.5938 12V2C17.5938 1.70992 17.4785 1.43172 17.2734 1.2266C17.0683 1.02148 16.7901 0.90625 16.5 0.90625ZM1.5 1.84375H16.5C16.5414 1.84375 16.5812 1.86021 16.6105 1.88951C16.6398 1.91882 16.6562 1.95856 16.6562 2V4.03125H1.34375V2C1.34375 1.95856 1.36021 1.91882 1.38951 1.88951C1.41882 1.86021 1.45856 1.84375 1.5 1.84375ZM16.5 12.1562H1.5C1.45856 12.1562 1.41882 12.1398 1.38951 12.1105C1.36021 12.0812 1.34375 12.0414 1.34375 12V4.96875H16.6562V12C16.6562 12.0414 16.6398 12.0812 16.6105 12.1105C16.5812 12.1398 16.5414 12.1562 16.5 12.1562ZM15.0938 10.125C15.0938 10.2493 15.0444 10.3685 14.9565 10.4565C14.8685 10.5444 14.7493 10.5938 14.625 10.5938H12.125C12.0007 10.5938 11.8815 10.5444 11.7935 10.4565C11.7056 10.3685 11.6562 10.2493 11.6562 10.125C11.6562 10.0007 11.7056 9.88145 11.7935 9.79354C11.8815 9.70564 12.0007 9.65625 12.125 9.65625H14.625C14.7493 9.65625 14.8685 9.70564 14.9565 9.79354C15.0444 9.88145 15.0938 10.0007 15.0938 10.125ZM10.0938 10.125C10.0938 10.2493 10.0444 10.3685 9.95646 10.4565C9.86855 10.5444 9.74932 10.5938 9.625 10.5938H8.375C8.25068 10.5938 8.13145 10.5444 8.04354 10.4565C7.95564 10.3685 7.90625 10.2493 7.90625 10.125C7.90625 10.0007 7.95564 9.88145 8.04354 9.79354C8.13145 9.70564 8.25068 9.65625 8.375 9.65625H9.625C9.74932 9.65625 9.86855 9.70564 9.95646 9.79354C10.0444 9.88145 10.0938 10.0007 10.0938 10.125Z" fill="black"/>
</svg>
