<svg width="35" height="35" viewBox="0 0 35 35" fill="none" xmlns="http://www.w3.org/2000/svg">
<path d="M26.0163 32.1798C25.3897 32.5465 24.5997 32.2398 24.3297 31.5665C24.083 30.9564 24.3497 30.2665 24.913 29.9281C26.3731 29.0506 27.6691 27.9255 28.743 26.6031C28.9305 26.3648 29.1928 26.1966 29.4876 26.1255C29.7824 26.0545 30.0925 26.0847 30.368 26.2115C31.0547 26.5465 31.2913 27.4131 30.818 28.0115C29.4915 29.6876 27.8619 31.1013 26.0163 32.1798ZM32.1447 22.9065C32.8113 23.2298 33.6147 22.9148 33.8213 22.2048C34.2647 20.6848 34.5013 19.0781 34.5013 17.4165C34.5013 15.9415 34.3147 14.5098 33.963 13.1448C33.7747 12.4165 32.963 12.0781 32.283 12.4015C32.0079 12.5407 31.7888 12.7699 31.662 13.051C31.5353 13.3321 31.5086 13.6481 31.5863 13.9465C31.858 15.0581 32.0013 16.2215 32.0013 17.4165C32.0013 18.7715 31.818 20.0831 31.4713 21.3281C31.298 21.9498 31.5647 22.6231 32.1447 22.9065ZM4.02634 9.19312C4.60634 9.47645 5.30134 9.27145 5.68468 8.75312C6.54293 7.59229 7.56787 6.56455 8.72634 5.70312C8.9677 5.52938 9.14493 5.28081 9.23052 4.99601C9.31611 4.71121 9.30527 4.40612 9.19968 4.12812C8.90801 3.40645 8.03801 3.11478 7.40634 3.57145C5.9221 4.64615 4.6195 5.95156 3.54801 7.43812C3.11468 8.03812 3.36134 8.86812 4.02634 9.19312ZM19.3013 31.8798C19.5954 31.8373 19.8952 31.893 20.1543 32.0383C20.4134 32.1835 20.6174 32.4102 20.7347 32.6831C21.028 33.4064 20.6047 34.2215 19.8347 34.3298C17.941 34.5992 16.0156 34.5502 14.138 34.1848C13.3997 34.0415 13.0147 33.2514 13.2963 32.5548C13.533 31.9665 14.1713 31.6514 14.7963 31.7648C16.2831 32.035 17.8027 32.0738 19.3013 31.8798ZM0.903009 21.8098C1.09634 22.5381 1.91301 22.8681 2.58968 22.5381C3.15968 22.2614 3.42968 21.6048 3.27301 20.9898C2.72051 18.7888 2.68628 16.4896 3.17301 14.2731C3.24292 13.9777 3.2112 13.6673 3.08298 13.3921C2.95475 13.1169 2.73751 12.893 2.46634 12.7565C1.77634 12.4281 0.949676 12.7815 0.778009 13.5265C0.481805 14.8019 0.332501 16.1071 0.333009 17.4165C0.333009 18.9348 0.531342 20.4081 0.903009 21.8098ZM28.9363 8.47478C29.3263 8.97478 30.008 9.16645 30.578 8.88812C31.2547 8.55812 31.4947 7.70978 31.0413 7.10978C29.8413 5.52645 28.3747 4.15978 26.708 3.07645C26.0763 2.66812 25.2497 2.96978 24.968 3.66645C24.8596 3.95477 24.8531 4.2715 24.9495 4.56405C25.0459 4.8566 25.2394 5.10739 25.498 5.27478C26.8092 6.14967 27.9691 7.2302 28.9363 8.47478ZM9.82468 31.1398C9.93339 30.8518 9.94044 30.5354 9.84465 30.2428C9.74886 29.9503 9.55599 29.6993 9.29801 29.5314C7.99192 28.6543 6.83547 27.5727 5.87301 26.3281C5.68799 26.0818 5.42427 25.9061 5.12565 25.8303C4.82702 25.7545 4.51145 25.7831 4.23134 25.9115C3.55634 26.2398 3.31468 27.0865 3.76468 27.6865C4.95801 29.2698 6.41968 30.6381 8.08134 31.7265C8.71468 32.1381 9.54301 31.8381 9.82468 31.1398ZM21.3163 2.22312C21.5913 1.52312 21.1947 0.734784 20.453 0.601451C18.1658 0.190619 15.8189 0.248454 13.5547 0.77145C12.8463 0.93645 12.483 1.69978 12.748 2.37812C12.988 2.98978 13.6563 3.30812 14.298 3.16812C16.1171 2.77178 17.9949 2.7254 19.8313 3.03145C20.1337 3.08606 20.4457 3.03589 20.7157 2.88922C20.9857 2.74255 21.1976 2.5065 21.3163 2.22312Z" fill="black"/>
</svg>
